<?xml version="1.0" standalone="no"?>
<!DOCTYPE svg PUBLIC "-//W3C//DTD SVG 20010904//EN"
 "http://www.w3.org/TR/2001/REC-SVG-20010904/DTD/svg10.dtd">
<svg version="1.0" xmlns="http://www.w3.org/2000/svg"
 width="1024.000000pt" height="1024.000000pt" viewBox="0 0 1024.000000 1024.000000"
 preserveAspectRatio="xMidYMid meet">

<g transform="translate(0.000000,1024.000000) scale(0.100000,-0.100000)"
fill="#000000" stroke="none">
<path d="M2966 9228 c-472 -41 -943 -256 -1290 -588 -385 -369 -620 -857 -665
-1385 -15 -165 -15 -4105 0 -4270 65 -759 521 -1425 1204 -1760 235 -116 509
-192 770 -214 165 -15 4105 -15 4270 0 683 58 1299 437 1661 1020 171 277 285
623 313 954 15 165 15 4105 0 4270 -65 759 -521 1425 -1204 1760 -235 116
-509 192 -770 214 -149 13 -4143 12 -4289 -1z m4414 -555 c347 -77 604 -215
841 -452 198 -198 322 -403 403 -661 77 -249 71 -41 71 -2440 0 -2399 6 -2191
-71 -2440 -81 -258 -205 -463 -403 -661 -237 -237 -494 -375 -841 -452 -95
-21 -101 -21 -2185 -24 -1407 -3 -2122 0 -2188 7 -526 56 -978 345 -1243 796
-95 162 -155 321 -196 525 l-23 114 0 2135 c0 2356 -4 2182 61 2406 182 630
724 1086 1381 1164 37 4 1020 7 2183 6 2113 -2 2115 -2 2210 -23z"/>
<path d="M5181 6944 c-131 -35 -260 -138 -337 -269 -23 -38 -113 -187 -199
-330 -87 -143 -215 -354 -285 -470 -70 -115 -205 -338 -300 -495 -451 -743
-508 -840 -524 -886 -41 -115 -28 -291 29 -403 31 -62 121 -160 183 -199 161
-101 901 -537 945 -556 245 -109 538 -10 679 230 19 32 79 131 133 219 53 88
155 255 225 370 70 116 167 275 215 355 119 195 343 564 480 790 62 102 142
234 179 295 132 218 147 385 51 573 -54 107 -120 162 -375 314 -124 74 -337
201 -473 282 -137 82 -279 159 -315 172 -79 28 -223 32 -311 8z m224 -259 c25
-9 141 -73 258 -142 116 -70 309 -184 427 -254 262 -155 292 -177 326 -234 31
-54 42 -144 24 -201 -7 -21 -51 -102 -98 -179 -47 -77 -136 -223 -197 -325
-208 -343 -451 -744 -610 -1005 -87 -143 -214 -354 -283 -468 -132 -221 -170
-267 -242 -300 -55 -24 -150 -26 -202 -4 -21 9 -149 82 -285 163 -136 81 -309
183 -383 227 -246 146 -282 170 -312 211 -43 60 -61 130 -48 196 12 62 6 52
230 420 221 365 371 612 530 875 110 181 279 460 502 827 33 54 79 115 105
138 74 65 169 85 258 55z"/>
<path d="M4263 4421 c-60 -38 -80 -114 -46 -173 13 -20 83 -68 237 -160 121
-73 238 -138 260 -146 108 -37 209 75 159 176 -15 31 -51 57 -248 176 -200
121 -237 140 -280 143 -38 3 -58 -1 -82 -16z"/>
<path d="M3260 6131 c-157 -50 -367 -185 -476 -304 -61 -68 -142 -183 -178
-255 -38 -74 -92 -239 -106 -322 -28 -156 -6 -441 38 -508 36 -56 132 -70 188
-27 50 39 58 77 38 186 -21 116 -15 280 16 387 52 186 177 364 330 473 55 40
178 101 246 123 28 9 64 30 80 47 25 26 29 38 29 84 0 58 -22 92 -77 121 -35
18 -60 17 -128 -5z"/>
<path d="M3371 5604 c-168 -76 -289 -220 -336 -399 -17 -68 -20 -222 -4 -280
20 -75 93 -124 158 -105 87 25 96 44 96 200 0 107 3 132 22 172 32 69 97 134
169 168 82 40 114 77 114 137 0 75 -58 134 -132 132 -18 0 -57 -11 -87 -25z"/>
<path d="M7513 5550 c-18 -10 -39 -34 -49 -51 -17 -34 -17 -53 6 -204 58 -383
-207 -796 -590 -920 -101 -33 -139 -103 -102 -188 24 -53 75 -82 132 -74 54 7
203 70 294 125 96 57 239 190 316 293 111 150 188 342 211 532 18 145 -3 376
-40 445 -31 57 -119 78 -178 42z"/>
<path d="M6994 5421 c-47 -29 -67 -87 -55 -162 26 -157 -47 -292 -198 -368
-92 -47 -125 -104 -101 -176 44 -135 216 -108 386 60 83 82 122 144 160 255
27 79 27 268 0 328 -34 76 -123 105 -192 63z"/>
</g>
</svg>
